<?xml version="1.0" encoding="utf-8"?>
<!-- Generator: Adobe Illustrator 17.0.0, SVG Export Plug-In . SVG Version: 6.00 Build 0)  -->
<!DOCTYPE svg PUBLIC "-//W3C//DTD SVG 1.1//EN" "http://www.w3.org/Graphics/SVG/1.1/DTD/svg11.dtd">
<svg version="1.1" id="Layer_1" xmlns="http://www.w3.org/2000/svg" xmlns:xlink="http://www.w3.org/1999/xlink" x="0px" y="0px"
	 width="138px" height="40px" viewBox="0 0 138 40" enable-background="new 0 0 138 40" xml:space="preserve">
<g>
	<path fill="#FFFFFF" d="M138,38.178c0,1.006-0.832,1.822-1.858,1.822H1.858C0.832,40,0,39.184,0,38.178V1.822
		C0,0.816,0.832,0,1.858,0h134.285C137.168,0,138,0.816,138,1.822V38.178z"/>
	<g>
		<circle fill="#002841" cx="3.281" cy="3.287" r="0.92"/>
		<circle fill="#002841" cx="3.281" cy="37.065" r="0.92"/>
	</g>
	<g>
		<circle fill="#002841" cx="135.054" cy="3.287" r="0.92"/>
		<circle fill="#002841" cx="135.054" cy="37.065" r="0.92"/>
	</g>
	<g>
		<path fill="#002841" d="M14.258,9.866h6.526c4.241,0,7.353,1.481,7.353,5.99c0,4.299-3.203,6.287-7.353,6.287H17.7v7.117h-3.441
			V9.866z M20.487,19.383c2.906,0,4.269-1.156,4.269-3.527c0-2.433-1.453-3.233-4.269-3.233H17.7v6.76H20.487z"/>
		<path fill="#002841" d="M38.254,19.949c-0.03-1.543-0.684-2.848-2.639-2.848c-1.453,0-2.818,0.653-4.092,1.423l-1.247-2.283
			c1.601-1.008,3.647-1.898,5.963-1.898c3.647,0,5.425,2.225,5.425,6.287v8.63h-2.788l-0.266-1.601h-0.088
			c-1.305,1.096-2.788,1.956-4.507,1.956c-2.551,0-4.331-1.719-4.331-4.269C29.683,22.231,32.294,20.6,38.254,19.949z M35.08,26.947
			c1.186,0,2.106-0.593,3.175-1.601v-3.263c-3.944,0.503-5.249,1.541-5.249,2.994C33.006,26.382,33.865,26.947,35.08,26.947z"/>
		<path fill="#002841" d="M45.522,14.698h2.818l0.236,1.958h0.118c1.307-1.275,2.788-2.313,4.776-2.313
			c3.112,0,4.477,2.106,4.477,5.782v9.135h-3.411v-8.69c0-2.401-0.681-3.291-2.283-3.291c-1.275,0-2.106,0.623-3.321,1.808V29.26
			h-3.411V14.698z"/>
		<path fill="#002841" d="M67.886,14.343c3.944,0,6.02,2.846,6.02,6.91c0,0.651-0.06,1.244-0.148,1.601h-9.253
			c0.297,2.639,1.958,4.12,4.299,4.12c1.247,0,2.315-0.385,3.381-1.066l1.156,2.134c-1.393,0.92-3.142,1.571-4.98,1.571
			c-4.034,0-7.177-2.816-7.177-7.619C61.185,17.249,64.475,14.343,67.886,14.343z M70.941,20.688c0-2.313-0.978-3.705-2.966-3.705
			c-1.719,0-3.203,1.275-3.499,3.705H70.941z"/>
		<path fill="#002841" d="M77.17,8.323h3.411V25.7c0,0.83,0.385,1.126,0.742,1.126c0.148,0,0.266,0,0.533-0.058l0.445,2.549
			c-0.415,0.178-1.008,0.297-1.81,0.297c-2.431,0-3.321-1.571-3.321-4.092V8.323z"/>
		<path fill="#002841" d="M91.556,9.866h11.714v2.906h-8.273v5.485h7.028v2.906h-7.028v8.097h-3.441V9.866z"/>
		<path fill="#002841" d="M105.914,10.221c0-1.156,0.89-1.956,2.104-1.956c1.217,0,2.106,0.799,2.106,1.956
			c0,1.126-0.89,1.928-2.106,1.928C106.804,12.149,105.914,11.347,105.914,10.221z M106.299,14.698h3.411V29.26h-3.411V14.698z"/>
		<path fill="#002841" d="M116.944,21.668l-4.329-6.971h3.678l1.631,2.76c0.415,0.799,0.89,1.659,1.335,2.461h0.118
			c0.355-0.802,0.772-1.662,1.126-2.461l1.395-2.76h3.527l-4.299,7.355l4.625,7.207h-3.678l-1.777-2.878
			c-0.475-0.86-0.98-1.75-1.483-2.579h-0.12c-0.415,0.83-0.86,1.692-1.275,2.579l-1.541,2.878h-3.559L116.944,21.668z"/>
	</g>
</g>
</svg>
